:SAMPLES-PER-SECOND 30
:FULLY-SPECIFIED
:DEGREES
63
root  32.3478 38.7204 -0.886865 52.0903 -84.6228 -56.2879
RightUpLeg  -14.5903 -14.4456 8.64692
RightLeg  25.5138 -2.77413 -1.49071
RightFoot  -7.93032 0.146065 -6.68923
RightToes  8.73114e-010 0 -3.6325e-017
Spine  6.31686 -1.94341 14.5339
Spine1  10.8004 -0.489847 -0.147035
HEad  -8.51215 -0.601205 -4.10229
LeftShoulder1  9.7634 -13.207 -50.9942
LeftArm  -1.46841 15.6096 -27.5674
LeftForeArm  23.465 -27.977 -4.76481
LeftHand  -0.244104 0.0205437 5.32207
RightShoulder  7.05017 10.4566 44.0674
RightArm  -1.55135 -8.03122 28.0148
RightForeArm  2.4264 11.8791 7.67217
RightHand  -0.820899 1.07856 -14.8264
LeftUpLeg  -7.83441 3.06188 6.67747
LeftLeg  64.568 1.86049 4.89897
LeftFoot  10.2594 1.10931 -6.12026
LeftToes  -7.64008e-011 1.13257e-010 -2.15718e-012
64
root  30.7202 39.1052 -0.999748 54.05 -85.8777 -58.444
RightUpLeg  -10.2262 -13.4367 6.77068
RightLeg  23.4299 -2.82897 -0.47794
RightFoot  -9.60363 0.0260767 -5.99324
RightToes  8.73114e-010 0 -3.6325e-017
Spine  6.46798 -1.14238 14.0658
Spine1  10.6325 0.520625 -0.949696
HEad  -7.23657 -0.979184 -3.98345
LeftShoulder1  9.69653 -13.2327 -50.5734
LeftArm  -0.532781 16.7814 -27.5975
LeftForeArm  22.7806 -26.0451 -4.36843
LeftHand  -0.244104 0.0205437 5.32207
RightShoulder  7.09434 10.5713 43.9777
RightArm  4.87898 -4.572 28.6906
RightForeArm  -3.60882 16.4714 6.91816
RightHand  -0.884843 1.25821 -15.5439
LeftUpLeg  -12.8317 2.83281 5.53441
LeftLeg  65.7587 2.49361 6.73083
LeftFoot  6.1252 0.620412 -4.30366
LeftToes  -7.64008e-011 1.13257e-010 -2.15718e-012
65
root  29.1094 39.3789 -1.09776 62.1658 -87.105 -66.5026
RightUpLeg  -6.20893 -11.6703 4.95954
RightLeg  21.3376 -3.54873 0.738387
RightFoot  -11.0399 -0.0605082 -5.41418
RightToes  8.73114e-010 0 -3.6325e-017
Spine  6.39345 -0.421414 13.883
Spine1  10.375 1.46959 -1.95316
HEad  -5.8945 -1.0331 -4.2119
LeftShoulder1  9.59487 -13.2662 -49.9492
LeftArm  0.261352 18.1472 -27.7143
LeftForeArm  21.5012 -23.8797 -4.00816
LeftHand  -0.244104 0.0205437 5.32207
RightShoulder  7.00182 10.5751 43.3602
RightArm  10.2552 -1.14562 29.9213
RightForeArm  -7.27867 20.7824 5.7262
RightHand  -0.860458 1.08149 -15.5135
LeftUpLeg  -17.3272 2.42365 4.40883
LeftLeg  63.7148 2.57092 6.32459
LeftFoot  3.7325 0.388888 -3.11425
LeftToes  -7.64008e-011 1.13257e-010 -2.15718e-012
66
root  27.5053 39.6016 -1.19277 85.6157 -88.1966 -89.8803
RightUpLeg  -2.21441 -10.0626 3.21143
RightLeg  18.8915 -3.96628 1.99292
RightFoot  -12.0669 -0.112047 -4.83369
RightToes  8.73114e-010 0 -3.6325e-017
Spine  6.32838 0.247958 13.5362
Spine1  10.1008 2.30552 -3.04083
HEad  -4.57932 -0.922559 -4.63606
LeftShoulder1  9.54673 -13.2878 -49.6363
LeftArm  0.71073 19.3042 -27.4486
LeftForeArm  20.5905 -21.6343 -3.95419
LeftHand  -0.244104 0.0205437 5.32207
RightShoulder  6.90843 10.5563 42.8085
RightArm  12.2589 2.31335 30.816
RightForeArm  -6.93848 24.604 5.52028
RightHand  -0.79691 0.763848 -15.102
LeftUpLeg  -20.86 2.13834 3.25171
LeftLeg  58.8422 2.46666 4.95128
LeftFoot  1.69139 0.26444 -2.41866
LeftToes  -7.64008e-011 1.13257e-010 -2.15718e-012
67
root  25.9161 39.732 -1.27103 131.754 -88.4668 -136.063
RightUpLeg  1.62704 -9.19935 1.72628
RightLeg  16.6882 -3.27687 3.05956
RightFoot  -13.1034 -0.153851 -4.24689
RightToes  8.73114e-010 0 -3.6325e-017
Spine  6.36791 0.787792 13.3896
Spine1  10.0876 3.06536 -4.34133
HEad  -3.59723 -0.582173 -5.07691
LeftShoulder1  9.55019 -13.2738 -49.6955
LeftArm  0.149475 20.1142 -26.7577
LeftForeArm  20.9811 -19.4467 -4.3639
LeftHand  -0.244104 0.0205437 5.32207
RightShoulder  6.90331 10.6439 42.4928
RightArm  12.2355 5.83787 31.3283
RightForeArm  -4.59634 27.9084 6.26867
RightHand  -0.754562 0.549707 -14.8097
LeftUpLeg  -23.036 2.56121 2.32978
LeftLeg  51.2368 2.57516 3.8764
LeftFoot  -0.540262 0.265128 -2.7805
LeftToes  -7.64008e-011 1.13257e-010 -2.15718e-012
68
root  24.3099 39.7123 -1.32058 157.47 -87.5038 -161.708
RightUpLeg  4.97182 -8.83422 0.847382
RightLeg  15.2619 -2.08486 3.79576
RightFoot  -14.3069 -0.199867 -3.96811
RightToes  8.73114e-010 0 -3.6325e-017
Spine  6.0922 1.14813 13.9994
Spine1  10.4794 3.73317 -5.87351
HEad  -3.09564 0.00117466 -5.388
LeftShoulder1  9.5503 -13.2551 -49.7512
LeftArm  -1.06022 20.7938 -26.0973
LeftForeArm  21.9991 -17.4419 -4.87353
LeftHand  -0.244104 0.0205437 5.32207
RightShoulder  6.90887 10.7912 42.0609
RightArm  12.4504 9.23138 32.1008
RightForeArm  -3.01763 30.6069 6.85493
RightHand  -0.764344 0.603428 -14.8671
LeftUpLeg  -24.0029 3.68591 1.82251
LeftLeg  41.037 2.5102 2.73014
LeftFoot  -1.60441 0.284661 -3.22322
LeftToes  -7.64008e-011 1.13257e-010 -2.15718e-012
69
root  22.6702 39.6179 -1.37182 162.834 -86.4111 -166.718
RightUpLeg  8.10122 -8.60626 0.236919
RightLeg  13.7759 -0.936488 4.27179
RightFoot  -15.3722 -0.24073 -3.88763
RightToes  8.73114e-010 0 -3.6325e-017
Spine  5.31997 1.49805 14.5819
Spine1  11.1461 4.32095 -7.33381
HEad  -2.79116 0.652325 -5.5504
LeftShoulder1  9.54011 -13.2662 -49.6655
LeftArm  -2.41855 21.5799 -25.6978
LeftForeArm  23.0048 -15.7169 -5.29267
LeftHand  -0.244104 0.0205437 5.32207
RightShoulder  6.86223 10.8766 41.489
RightArm  12.6542 12.2066 33.1141
RightForeArm  -2.05952 32.6228 7.33028
RightHand  -0.808564 0.819744 -15.1864
LeftUpLeg  -23.9917 5.6199 1.06155
LeftLeg  28.5068 1.07665 1.19905
LeftFoot  -1.22391 0.246866 -2.70959
LeftToes  -7.64008e-011 1.13257e-010 -2.15718e-012
70
root  21.0097 39.4961 -1.44002 168.692 -85.3532 -172.173
RightUpLeg  11.3039 -8.61391 -0.704099
RightLeg  12.0444 0.673356 4.59943
RightFoot  -16.335 -0.253445 -3.29506
RightToes  8.73114e-010 0 -3.6325e-017
Spine  4.48903 1.92376 14.3674
Spine1  11.8728 4.88622 -8.39318
HEad  -2.36436 1.26964 -5.58113
LeftShoulder1  9.52311 -13.254 -49.6135
LeftArm  -3.51392 22.5026 -25.4298
LeftForeArm  23.6252 -14.4008 -5.5603
LeftHand  -0.244104 0.0205437 5.32207
RightShoulder  6.83747 10.9123 41.2175
RightArm  12.8599 14.5773 33.8382
RightForeArm  -1.60332 34.0069 7.68208
RightHand  -0.842295 0.908724 -15.5958
LeftUpLeg  -22.903 7.20988 0.447116
LeftLeg  14.6026 0.462208 -0.519787
LeftFoot  -0.56942 0.284789 -2.97819
LeftToes  -7.64008e-011 1.13257e-010 -2.15718e-012
71
root  19.2725 39.2655 -1.48092 171.225 -84.1473 -174.552
RightUpLeg  14.3023 -9.10777 -1.9084
RightLeg  11.5455 3.17007 4.81502
RightFoot  -17.3629 -0.230027 -2.14246
RightToes  8.73114e-010 0 -3.6325e-017
Spine  3.90291 2.28585 14.1914
Spine1  12.5238 5.44701 -9.26862
HEad  -1.97056 1.94805 -5.42097
LeftShoulder1  9.45409 -13.1371 -49.5993
LeftArm  -4.31746 23.5069 -25.2626
LeftForeArm  23.7132 -13.6296 -5.65581
LeftHand  -0.244104 0.0205437 5.32207
RightShoulder  6.89318 10.986 41.3514
RightArm  13.0751 16.2515 34.2834
RightForeArm  -1.28124 34.6303 7.83848
RightHand  -0.850953 0.837646 -15.9253
LeftUpLeg  -20.8827 4.03425 2.56593
LeftLeg  2.21815 7.82691 -3.65607
LeftFoot  -0.487278 0.447223 -4.67621
LeftToes  -7.64008e-011 1.13257e-010 -2.15718e-012
72
root  17.4111 38.9327 -1.46403 170.188 -82.9819 -173.565
RightUpLeg  16.972 -10.1586 -3.2853
RightLeg  12.6926 6.13329 4.87636
RightFoot  -18.0489 -0.182668 -1.02834
RightToes  8.73114e-010 0 -3.6325e-017
Spine  3.40703 2.46541 14.5334
Spine1  13.1481 5.94231 -10.2579
HEad  -1.93091 2.71149 -5.07022
LeftShoulder1  9.3288 -12.95 -49.4978
LeftArm  -5.02786 24.6238 -25.3235
LeftForeArm  23.364 -13.4348 -5.57513
LeftHand  -0.244104 0.0205437 5.32207
RightShoulder  6.97443 11.0947 41.5413
RightArm  13.3208 17.0391 34.8478
RightForeArm  -0.895912 34.452 7.76696
RightHand  -0.856432 0.861205 -15.9683
LeftUpLeg  -19.8416 3.51821 3.19578
LeftLeg  -3.85213 14.2801 -6.33492
LeftFoot  -0.459899 0.463601 -4.82349
LeftToes  -7.64008e-011 1.13257e-010 -2.15718e-012
73
root  15.475 38.6315 -1.43422 172.706 -82.441 -176.152
RightUpLeg  19.5467 -11.6564 -5.47859
RightLeg  14.3087 9.15972 4.72231
RightFoot  -18.0848 -0.0793749 0.678222
RightToes  8.73114e-010 0 -3.6325e-017
Spine  2.91941 2.50386 13.8068
Spine1  13.8083 6.20383 -10.6962
HEad  -2.04334 3.2994 -4.6465
LeftShoulder1  9.25289 -12.8196 -49.4867
LeftArm  -5.65828 25.7732 -25.4471
LeftForeArm  22.9222 -13.4953 -5.43081
LeftHand  -0.244104 0.0205437 5.32207
RightShoulder  7.05953 11.1804 41.8223
RightArm  13.5892 16.6477 35.2208
RightForeArm  -0.598059 33.71 7.54373
RightHand  -0.867579 1.05659 -15.7011
LeftUpLeg  -20.4059 3.63417 2.09546
LeftLeg  -2.05334 18.6729 -6.52046
LeftFoot  1.7474 0.129647 -1.36415
LeftToes  -7.64008e-011 1.13257e-010 -2.15718e-012
74
root  13.4588 38.3507 -1.43919 -179.424 -82.5113 175.56
RightUpLeg  21.7843 -12.8268 -8.51703
RightLeg  17.2766 12.0287 4.75521
RightFoot  -17.4033 0.106344 4.25941
RightToes  8.73114e-010 0 -3.6325e-017
Spine  2.68705 2.6586 11.0617
Spine1  14.0053 6.04519 -9.74618
HEad  -1.73859 3.36985 -4.1461
LeftShoulder1  9.30194 -12.7983 -49.8123
LeftArm  -6.10185 26.4766 -25.2391
LeftForeArm  22.8186 -13.095 -5.43621
LeftHand  -0.244104 0.0205437 5.32207
RightShoulder  7.22942 11.2406 42.7113
RightArm  13.8231 14.9732 34.7567
RightForeArm  -0.63946 32.2708 7.15785
RightHand  -0.900479 1.36892 -15.5593
LeftUpLeg  -22.0233 5.0009 -0.895476
LeftLeg  5.54757 17.8146 -3.46821
LeftFoot  5.88235 -0.592328 3.66706
LeftToes  -7.64008e-011 1.13257e-010 -2.15718e-012
